<?xml version="1.0" encoding="utf-8"?>
<!-- Generator: Adobe Illustrator 16.0.0, SVG Export Plug-In . SVG Version: 6.00 Build 0)  -->
<!DOCTYPE svg PUBLIC "-//W3C//DTD SVG 1.1//EN" "http://www.w3.org/Graphics/SVG/1.1/DTD/svg11.dtd">
<svg version="1.1" id="Layer_2" xmlns="http://www.w3.org/2000/svg" xmlns:xlink="http://www.w3.org/1999/xlink" x="0px" y="0px"
	 width="20.798px" height="20.846px" viewBox="0 0 20.798 20.846" enable-background="new 0 0 20.798 20.846" xml:space="preserve">
<g>
	<polygon fill-rule="evenodd" clip-rule="evenodd" fill="#BA2025" points="0.708,16.399 6.708,10.399 0.708,4.397 4.398,0.707 
		10.399,6.708 16.399,0.707 20.091,4.398 14.091,10.399 20.091,16.399 16.399,20.09 10.399,14.089 4.398,20.09 	"/>
	<path fill="#444444" d="M16.399,1.414l2.984,2.984l-6,6l6,6l-2.984,2.984l-6-6.001l-6.001,6.001l-2.983-2.984l6-6l-6-6.001
		l2.983-2.983l6.001,6L16.399,1.414 M16.399,0l-0.707,0.707L10.399,6L5.105,0.707L4.398,0L3.691,0.707L0.708,3.69L0,4.397
		l0.707,0.707l5.293,5.294l-5.293,5.293L0,16.399l0.707,0.707l2.983,2.984l0.707,0.707l0.707-0.707l5.294-5.294l5.293,5.294
		l0.707,0.707l0.707-0.707l2.984-2.984l0.707-0.707l-0.707-0.707l-5.293-5.293l5.293-5.293l0.707-0.707l-0.707-0.707l-2.984-2.984
		L16.399,0L16.399,0z"/>
</g>
<g display="none">
	<polygon display="inline" fill-rule="evenodd" clip-rule="evenodd" fill="#BA2025" points="0.707,16.448 6.708,10.448 0.707,4.447 
		4.397,0.756 10.398,6.757 16.398,0.756 20.09,4.448 14.09,10.448 20.09,16.448 16.398,20.139 10.398,14.139 4.397,20.139 	"/>
	<path display="inline" fill="#444444" d="M16.398,1.463l2.984,2.984l-6,6l6,6l-2.984,2.984l-6-6l-6.001,6l-2.983-2.984l6-6
		l-6-6.001l2.983-2.983l6.001,6L16.398,1.463 M16.398,0.049l-0.707,0.707L10.398,6.05L5.104,0.756L4.397,0.049L3.69,0.756
		L0.707,3.74L0,4.447l0.707,0.707L6,10.448l-5.293,5.293L0,16.448l0.707,0.707l2.983,2.984l0.707,0.707l0.707-0.707l5.294-5.293
		l5.293,5.293l0.707,0.707l0.707-0.707l2.984-2.984l0.707-0.707l-0.707-0.707l-5.293-5.293l5.293-5.293l0.707-0.707L20.09,3.741
		l-2.984-2.984L16.398,0.049L16.398,0.049z"/>
</g>
</svg>
