<?xml version="1.0" encoding="utf-8"?>
<!-- Generator: Adobe Illustrator 16.0.0, SVG Export Plug-In . SVG Version: 6.00 Build 0)  -->
<!DOCTYPE svg PUBLIC "-//W3C//DTD SVG 1.1//EN" "http://www.w3.org/Graphics/SVG/1.1/DTD/svg11.dtd">
<svg version="1.1" id="Layer_3" xmlns="http://www.w3.org/2000/svg" xmlns:xlink="http://www.w3.org/1999/xlink" x="0px" y="0px"
	 width="600px" height="600px" viewBox="0 0 600 600" enable-background="new 0 0 600 600" xml:space="preserve">
<path fill="#FFFFFF" d="M595,331.753c0-94.407-36.972-312.101-295-312.101C41.973,19.652,5,237.346,5,331.753
	c0,0,189.153,84.179,107.223,185.076c43.189,39.118,108.603,63.519,187.777,63.519s144.588-24.4,187.776-63.519
	C405.846,415.932,595,331.753,595,331.753z M300,204.168c73.963,0,131.228-14.805,131.228-14.805S406.688,241.167,300,241.167
	c-106.689,0-131.229-51.804-131.229-51.804S226.037,204.168,300,204.168z M74.231,324.531l-0.004-0.006
	c-8.848-55.785-0.374-99.85,57.469-110.473c14.049,55.467,55.904,87.171,133.852,83.934l-2.026,61.304
	C191.628,396.03,130.949,362.934,74.231,324.531z M300,516.821c0,0-26.867,0.517-47.846-14.249
	c11.897-41.445,31.354-90.522,47.587-118.561l-0.001-0.9c0.086,0.147,0.173,0.303,0.26,0.451c0.087-0.148,0.174-0.304,0.26-0.451
	l-0.002,0.9c16.234,28.038,35.69,77.115,47.588,118.561C326.867,517.338,300,516.821,300,516.821z M336.479,359.29l-2.026-61.304
	c77.947,3.237,119.803-28.467,133.853-83.934c57.843,10.623,66.316,54.688,57.469,110.473l-0.004,0.006
	C469.051,362.934,408.372,396.03,336.479,359.29z"/>
</svg>
