<?xml version="1.0" encoding="utf-8"?>
<!-- Generator: Adobe Illustrator 16.0.0, SVG Export Plug-In . SVG Version: 6.00 Build 0)  -->
<!DOCTYPE svg PUBLIC "-//W3C//DTD SVG 1.1//EN" "http://www.w3.org/Graphics/SVG/1.1/DTD/svg11.dtd">
<svg version="1.1" id="Layer_2" xmlns="http://www.w3.org/2000/svg" xmlns:xlink="http://www.w3.org/1999/xlink" x="0px" y="0px"
	 width="600px" height="600px" viewBox="0 0 600 600" enable-background="new 0 0 600 600" xml:space="preserve">
<g>
	<polygon fill="#FFFFFF" points="299.95,220.869 443.103,77.716 498.085,5 298.011,140.533 97.945,5.008 140.896,61.814 	"/>
	<polygon fill="#FFFFFF" points="538.187,459.105 594.991,502.055 459.466,301.988 595,101.916 522.285,156.896 379.132,300.05 	"/>
	<polygon fill="#FFFFFF" points="300.054,379.128 156.896,522.284 101.916,595 301.988,459.466 502.055,594.991 459.08,538.153 	"/>
	<polygon fill="#FFFFFF" points="348.871,300.05 438.642,210.28 544.098,54.442 397.306,153.772 299.95,251.128 203.38,154.559 
		55.635,54.584 160.005,208.818 251.132,299.946 153.624,397.455 54.31,544.217 210.175,438.746 300.054,348.867 391.158,439.971 
		545.419,544.354 445.458,396.638 	"/>
	<polygon fill="#FFFFFF" points="140.533,298.011 5,498.085 77.717,443.102 220.874,299.946 61.848,140.92 5.008,97.945 	"/>
</g>
</svg>
