<?xml version="1.0" encoding="utf-8"?>
<!-- Generator: Adobe Illustrator 16.0.0, SVG Export Plug-In . SVG Version: 6.00 Build 0)  -->
<!DOCTYPE svg PUBLIC "-//W3C//DTD SVG 1.1//EN" "http://www.w3.org/Graphics/SVG/1.1/DTD/svg11.dtd">
<svg version="1.1" id="Layer_2" xmlns="http://www.w3.org/2000/svg" xmlns:xlink="http://www.w3.org/1999/xlink" x="0px" y="0px"
	 width="600px" height="600px" viewBox="0 0 600 600" enable-background="new 0 0 600 600" xml:space="preserve">
<g>
	<path fill="#231F20" d="M419.4,595H169.843l-150.6-233.033l110.801,42.521L49.707,230.418l118.373,83.857l-26.456-159.997
		l100.47,101.581L247.403,5l90.415,243.274l129.664-128.92l-39.641,194.237l108.762-56.169l-74.129,135.301l118.282-50.183
		L419.4,595z M192.833,552.771h203.438l75.492-118.115l-104.771,44.45l66.14-120.717l-64.313,33.214l29.343-143.775l-77.08,76.638
		l-36.142-97.248l-2.736,129.251l-77.261-78.117l21.312,128.89l-71.954-50.974l57.634,124.876l-86.957-33.369L192.833,552.771z"/>
</g>
</svg>
