<?xml version="1.0" encoding="utf-8"?>
<!-- Generator: Adobe Illustrator 16.0.0, SVG Export Plug-In . SVG Version: 6.00 Build 0)  -->
<!DOCTYPE svg PUBLIC "-//W3C//DTD SVG 1.1//EN" "http://www.w3.org/Graphics/SVG/1.1/DTD/svg11.dtd">
<svg version="1.1" id="Layer_2" xmlns="http://www.w3.org/2000/svg" xmlns:xlink="http://www.w3.org/1999/xlink" x="0px" y="0px"
	 width="600px" height="600px" viewBox="0 0 600 600" enable-background="new 0 0 600 600" xml:space="preserve">
<path fill="#FFFFFF" d="M446.024,74.47c70.217,45.558,117.829,123.006,122.291,211.832h26.357
	c-4.51-98.571-57.381-184.529-135.456-234.683L446.024,74.47z"/>
<path fill="#FFFFFF" d="M31.685,286.302c4.462-88.828,52.072-166.277,122.29-211.835l-13.192-22.85
	C62.707,101.77,9.835,187.729,5.328,286.302H31.685z"/>
<path fill="#FFFFFF" d="M177.678,60.738c36.688-18.794,78.265-29.399,122.319-29.399c44.056,0,85.636,10.605,122.325,29.4
	l13.181-22.828C394.924,16.887,348.85,5,299.996,5c-48.851,0-94.923,11.887-135.499,32.908L177.678,60.738z"/>
<path fill="#FFFFFF" d="M153.974,525.533c-70.22-45.558-117.83-123.007-122.289-211.838H5.328
	c4.505,98.577,57.375,184.538,135.454,234.69L153.974,525.533z"/>
<path fill="#FFFFFF" d="M422.323,539.261c-36.689,18.794-78.271,29.398-122.326,29.398c-44.055,0-85.633-10.604-122.322-29.397
	l-13.18,22.831C205.071,583.113,251.144,595,299.996,595c48.854,0,94.929-11.888,135.507-32.909L422.323,539.261z"/>
<path fill="#FFFFFF" d="M568.315,313.695c-4.459,88.831-52.07,166.277-122.29,211.836l13.193,22.851
	c78.076-50.152,130.948-136.112,135.454-234.687H568.315L568.315,313.695z"/>
<path fill="#FFFFFF" d="M516.403,409.125c16.572-32.796,25.918-69.866,25.918-109.122c0-39.258-9.348-76.332-25.921-109.13
	l-54.664,31.561c-3.987-8.27-8.606-16.176-13.779-23.671l54.721-31.593C461.723,104.806,392.774,62.479,313.694,58.072v64.281
	c-3.936-0.261-7.902-0.407-11.904-0.407c-5.219,0-10.382,0.239-15.487,0.68V58.071c-79.081,4.407-148.029,46.731-188.984,109.096
	l57.281,33.071c-5.095,7.546-9.614,15.513-13.519,23.824l-57.484-33.189c-16.571,32.799-25.917,69.872-25.917,109.129
	c0,39.258,9.345,76.324,25.915,109.122l57.918-33.439c3.951,8.288,8.527,16.222,13.666,23.741l-57.862,33.406
	c40.953,62.364,109.902,104.689,188.987,109.095v-65.724c5.104,0.441,10.269,0.681,15.487,0.681c4.002,0,7.968-0.146,11.903-0.407
	v65.449c79.084-4.406,148.033-46.732,188.987-109.095l-55.302-31.929c5.217-7.468,9.871-15.353,13.907-23.6L516.403,409.125z
	 M403.856,326.717c-4.924,19.17-15.02,36.265-28.706,49.715l23.596,40.899l-46.469,26.72l-23.519-40.767
	c-9.158,2.545-18.807,3.912-28.774,3.912c-9.958,0-19.599-1.364-28.748-3.903l-23.516,40.758l-46.468-26.72l23.585-40.88
	c-13.696-13.456-23.798-30.554-28.724-49.733h-47.137v-53.437h47.117c4.916-19.198,15.016-36.316,28.715-49.786l-23.556-40.831
	l46.468-26.714l23.474,40.686c9.163-2.546,18.814-3.914,28.789-3.914c9.982,0,19.645,1.371,28.815,3.922l23.478-40.694
	l46.469,26.714l-23.566,40.849c13.69,13.467,23.784,30.578,28.698,49.767h47.144v53.437H403.856L403.856,326.717z"/>
</svg>
