<?xml version="1.0" encoding="utf-8"?>
<!-- Generator: Adobe Illustrator 16.0.0, SVG Export Plug-In . SVG Version: 6.00 Build 0)  -->
<!DOCTYPE svg PUBLIC "-//W3C//DTD SVG 1.1//EN" "http://www.w3.org/Graphics/SVG/1.1/DTD/svg11.dtd">
<svg version="1.1" id="Layer_1" xmlns="http://www.w3.org/2000/svg" xmlns:xlink="http://www.w3.org/1999/xlink" x="0px" y="0px"
	 width="600px" height="600px" viewBox="6 96 600 600" enable-background="new 6 96 600 600" xml:space="preserve">
<g transform="matrix(15.00001 0 0 15.00001 -2144.002 -4904.0106)">
	<path fill="#231F20" d="M143.842,335.217c-0.083-0.014-0.161,0.034-0.174,0.108c-0.01,0.059,0.025,0.119,0.085,0.147
		c4.341,2.202,7.571,3.621,9.705,4.627c1.067,0.503,1.86,0.903,2.372,1.238c0.256,0.167,0.441,0.32,0.554,0.452
		c0.113,0.132,0.154,0.235,0.149,0.334c-0.004,0.098-0.055,0.206-0.18,0.33c-0.125,0.124-0.324,0.259-0.59,0.405
		c-0.532,0.293-1.338,0.629-2.41,1.046c-2.145,0.834-5.352,1.997-9.591,3.855c-0.075,0.032-0.105,0.113-0.066,0.182
		c0.035,0.063,0.117,0.094,0.189,0.072c4.267-1.25,7.581-2.304,9.908-2.944c1.164-0.32,2.083-0.535,2.74-0.62
		c0.329-0.043,0.592-0.053,0.781-0.031c0.188,0.023,0.288,0.073,0.338,0.132c0.05,0.059,0.074,0.15,0.038,0.312
		c-0.035,0.161-0.135,0.379-0.299,0.645c-0.329,0.532-0.918,1.26-1.769,2.2c-1.701,1.881-4.445,4.62-8.259,8.428
		c-0.055,0.055-0.048,0.142,0.016,0.193c0.059,0.048,0.147,0.049,0.204,0.003c3.988-3.264,6.731-5.8,8.576-7.39
		c0.923-0.795,1.625-1.353,2.127-1.641c0.251-0.145,0.454-0.218,0.591-0.229c0.137-0.012,0.2,0.014,0.276,0.106
		c0.152,0.183,0.249,0.708,0.23,1.553c-0.019,0.845-0.13,2.011-0.288,3.519c-0.316,3.015-0.822,7.401-1.167,13.362
		c-0.004,0.076,0.06,0.142,0.145,0.149c0.081,0.007,0.151-0.044,0.159-0.116c1.796-12.787,4.033-20.43,4.033-20.43
		c0.018-0.06-0.012-0.125-0.074-0.158c0,0-0.62-0.315-1.286-1.144c-0.666-0.83-1.367-2.166-1.485-4.198
		c-0.004-0.07-0.066-0.128-0.144-0.134c-5.029-0.358-9.468-1.746-15.394-4.35C143.872,335.224,143.857,335.22,143.842,335.217
		L143.842,335.217z M182.825,335.217c-0.015,0.002-0.03,0.007-0.044,0.013c-5.926,2.604-10.365,3.993-15.394,4.35
		c-0.078,0.006-0.14,0.064-0.144,0.134c-0.118,2.032-0.82,3.368-1.485,4.198c-0.666,0.83-1.286,1.144-1.286,1.144
		c-0.061,0.032-0.092,0.097-0.074,0.158c0,0,2.238,7.642,4.034,20.43c0.009,0.072,0.079,0.123,0.159,0.116
		c0.084-0.006,0.149-0.073,0.145-0.149c-0.345-5.961-0.851-10.346-1.167-13.362c-0.158-1.508-0.269-2.674-0.288-3.519
		c-0.019-0.845,0.078-1.37,0.23-1.553c0.076-0.092,0.14-0.118,0.276-0.106c0.137,0.012,0.339,0.085,0.59,0.229
		c0.503,0.288,1.205,0.846,2.127,1.641c1.845,1.589,4.588,4.126,8.576,7.39c0.057,0.046,0.145,0.045,0.204-0.003
		c0.064-0.051,0.071-0.138,0.016-0.193c-3.814-3.808-6.557-6.547-8.259-8.428c-0.851-0.941-1.44-1.669-1.769-2.2
		c-0.164-0.266-0.263-0.484-0.299-0.645c-0.036-0.161-0.012-0.253,0.038-0.312c0.05-0.059,0.15-0.109,0.338-0.132
		c0.189-0.022,0.453-0.012,0.781,0.031c0.657,0.085,1.577,0.3,2.74,0.62c2.327,0.64,5.641,1.695,9.908,2.944
		c0.073,0.022,0.154-0.009,0.189-0.072c0.038-0.069,0.009-0.15-0.066-0.182c-4.239-1.858-7.446-3.022-9.591-3.855
		c-1.072-0.417-1.878-0.753-2.41-1.046c-0.266-0.147-0.464-0.281-0.59-0.405c-0.125-0.124-0.175-0.232-0.18-0.33
		c-0.004-0.099,0.036-0.202,0.149-0.334c0.113-0.132,0.298-0.285,0.554-0.452c0.512-0.335,1.305-0.735,2.372-1.238
		c2.134-1.005,5.364-2.424,9.705-4.627c0.061-0.028,0.095-0.088,0.085-0.147C182.985,335.251,182.908,335.203,182.825,335.217
		L182.825,335.217z M163.367,340.577c-0.206,0-0.405,0.017-0.579,0.123c-0.174,0.106-0.302,0.292-0.391,0.585
		c-0.18,0.586-0.241,1.639-0.222,3.62c0.038,3.961,0.421,11.618,1.015,26.433c0.002,0.065,0.064,0.117,0.137,0.115
		c0.07-0.002,0.127-0.053,0.129-0.115c0.549-14.815,0.955-22.473,1.027-26.433c0.036-1.98-0.009-3.032-0.172-3.617
		c-0.082-0.293-0.199-0.479-0.369-0.587C163.771,340.592,163.573,340.577,163.367,340.577L163.367,340.577z"/>
</g>
</svg>
